# xmcd
#
# Track frame offsets:
#	150
#	12783
#	24844
#	42747
#	61661
#	77962
#	101077
#	123716
#	141727
#	164523
#	180398
#	193353
#
# Disc length: 2738 seconds
#
# Revision: 0
# Processed by: cddbd v1.5.2PL0 Copyright (c) Steve Scherf et al.
# Submitted via: EZCDAudioConverter 7.0.6.1
#
DISCID=ab0ab00c
DTITLE=PAUL MAJOR: FEEL THE MUSIC V1
DYEAR=1900
DGENRE=
TTITLE0=Tom Lonergan and Buddy Kelly - The Travesty Of My Life
TTITLE1=Ray Harlowe and Gyp Fox - Run
TTITLE2=Justyn Rees - Behold
TTITLE3=The Yays and Nays - Let It All Hang Out
TTITLE4=Merkin - Ruby
TTITLE5=Sebastian - Passages
TTITLE6=Joint Effort - Blue Lightning
TTITLE7=Bob Edmund - Saturday Thought
TTITLE8=Jerry Solomon - Denied
TTITLE9=Dave Porter - Where Do Clouds Go?
TTITLE10=Marcus - Captain Zella Queen
TTITLE11=Darius - I Feel The Need To Carry On
EXTD=
EXTT0=
EXTT1=
EXTT2=
EXTT3=
EXTT4=
EXTT5=
EXTT6=
EXTT7=
EXTT8=
EXTT9=
EXTT10=
EXTT11=
PLAYORDER=
